<svg xmlns="http://www.w3.org/2000/svg" xmlns:xlink="http://www.w3.org/1999/xlink" style="vertical-align:-.755ex" width="4.659ex" height="2.634ex" viewBox="0 -809.3 2006 1134.2"><defs><path id="a" stroke-width="1" d="M92 210q0-34 14-61t36-41 43-23 35-13l15-2 2 1 13 41q18 58 33 99t39 88 48 76 59 48 73 19q45 0 80-32t36-108q0-78-43-150T457 35 299-10q-26 0-26-2l-7-36q-6-35-14-77t-11-54q-5-24-26-33-11-6-25-6-31 3-31 33 0 10 55 183l-5 2q-5 2-14 5t-22 9-26 14-27 18-26 25-23 32-15 39-6 48q0 48 26 121t73 120h13q21 0 21-8 0-6-8-14-41-48-61-109t-22-90zm482 68q0 42-24 66t-64 25q-49 0-92-40t-71-111q-14-34-28-109l-9-45q18-2 20-2 117 0 192 69t76 147z"/><path id="b" stroke-width="1" d="M94 250q0 69 10 131t23 107 37 88 38 67 42 52 33 34 25 21h17q14 0 14-9 0-3-17-21t-41-53-49-86-42-138-17-193 17-192 41-139 49-86 42-53 17-21q0-9-15-9h-16l-28 24q-94 85-137 212T94 250z"/><path id="c" stroke-width="1" d="M52 289q7 42 54 97t116 56q35 0 64-18t43-45q42 63 101 63 37 0 64-22t28-59q0-29-14-47t-27-22-23-4q-19 0-31 11t-12 29q0 46 50 63-11 13-40 13-13 0-19-2-38-16-56-66-60-221-60-258 0-28 16-40t35-12q37 0 73 33t49 81q3 10 6 11t16 2h4q15 0 15-8 0-1-2-11-16-57-62-101T333-11q-70 0-106 63-41-62-94-62h-6q-49 0-70 26T35 71q0 32 19 52t45 20q43 0 43-42 0-20-12-35t-23-20-13-5l-3-1q0-1 6-4t16-7 19-3q36 0 62 45 9 16 23 68t28 108 16 66q5 27 5 39 0 28-15 40t-34 12q-40 0-75-32t-49-82q-2-9-5-10t-16-2H58q-6 6-6 11z"/><path id="d" stroke-width="1" d="M60 749l4 1h22l28-24q94-85 137-212t43-264q0-68-10-131T261 12t-37-88-38-67-41-51-32-33-23-19l-4-4H63q-3 0-5 3t-3 9q1 1 11 13Q221-64 221 250T66 725q-10 12-11 13 0 8 5 11z"/></defs><g fill="currentColor" stroke="currentColor" stroke-width="0" transform="scale(1 -1)"><use xlink:href="#a"/><use x="654" xlink:href="#b"/><use x="1044" xlink:href="#c"/><use x="1616" xlink:href="#d"/></g></svg>